<?xml version="1.0" standalone="no"?>
<!DOCTYPE svg PUBLIC "-//W3C//DTD SVG 20010904//EN"
 "http://www.w3.org/TR/2001/REC-SVG-20010904/DTD/svg10.dtd">
<svg version="1.0" xmlns="http://www.w3.org/2000/svg"
 width="2504.000000pt" height="2504.000000pt" viewBox="0 0 2504.000000 2504.000000"
 preserveAspectRatio="xMidYMid meet">

<g transform="translate(0.000000,2504.000000) scale(0.100000,-0.100000)"
fill="none" stroke="none">
<path id="novhorod_rayon" fill="#1D1D36" d="M21060 23423 c-25 -13 -37 -27 -43 -53 -28 -120 -39 -141 -101 -208
-34 -37 -77 -88 -94 -113 -38 -56 -93 -102 -158 -130 -38 -17 -58 -20 -105
-15 -57 7 -58 6 -74 -23 -8 -17 -15 -48 -15 -70 0 -54 -28 -72 -120 -79 -66
-4 -73 -3 -129 31 -79 47 -95 51 -129 33 -31 -16 -124 -130 -202 -246 -24 -36
-51 -70 -59 -77 -9 -6 -74 -30 -146 -53 -148 -48 -177 -70 -209 -161 -18 -51
-32 -69 -131 -159 -30 -28 -44 -31 -197 -47 -69 -7 -141 15 -201 61 -51 38
-142 94 -217 131 -79 40 -142 32 -266 -35 -51 -28 -116 -57 -143 -66 -31 -9
-51 -21 -51 -29 0 -29 -41 -36 -208 -37 -167 -2 -167 -2 -286 36 -200 63 -419
177 -593 308 -54 41 -145 99 -202 128 -108 56 -239 137 -354 222 -37 28 -89
58 -116 69 -48 18 -226 49 -282 49 -31 0 -83 -39 -101 -77 -7 -15 -20 -31 -30
-36 -26 -17 -226 44 -350 107 -141 72 -337 124 -395 105 -55 -18 -107 -53
-168 -112 -47 -47 -54 -60 -75 -137 -24 -90 -29 -151 -17 -213 7 -31 17 -43
57 -68 30 -18 68 -56 98 -97 74 -101 81 -117 78 -202 -3 -67 -7 -81 -39 -132
-29 -44 -53 -66 -114 -104 -43 -26 -89 -56 -103 -67 -33 -25 -80 -95 -80 -120
0 -11 16 -48 35 -83 51 -91 48 -118 -25 -242 -33 -55 -60 -104 -60 -108 0 -4
20 -29 45 -55 31 -33 45 -57 45 -76 0 -39 -92 -233 -179 -378 -39 -66 -74
-129 -76 -140 -2 -11 -8 -47 -13 -80 -7 -43 -22 -78 -51 -121 -22 -34 -42 -72
-43 -85 -3 -24 -3 -24 103 -24 91 0 110 -3 128 -19 32 -29 26 -69 -19 -136
-40 -59 -59 -117 -60 -181 0 -34 3 -38 58 -65 65 -33 94 -69 117 -152 13 -44
27 -66 61 -97 73 -65 73 -134 3 -210 -48 -52 -49 -82 -3 -77 57 6 81 -12 114
-84 16 -37 30 -73 30 -80 0 -21 16 -17 52 15 71 61 127 69 171 23 33 -35 47
-79 47 -153 l0 -56 83 -11 c110 -16 401 -16 426 0 25 15 145 -2 224 -32 79
-30 110 -60 197 -189 40 -61 79 -112 86 -115 7 -3 22 -22 32 -43 49 -98 105
-191 131 -217 l29 -28 71 54 c158 121 397 219 495 204 91 -15 156 -65 156
-120 0 -8 22 -40 48 -70 81 -92 112 -162 122 -277 10 -121 31 -162 136 -264
77 -76 94 -111 94 -196 0 -37 -7 -54 -36 -92 -45 -58 -165 -122 -249 -132 -50
-7 -59 -11 -96 -56 -37 -45 -101 -95 -262 -206 -99 -69 -98 -66 -44 -114 58
-51 86 -98 127 -213 72 -206 93 -422 50 -511 -31 -65 -101 -123 -173 -142 -37
-11 -62 -24 -69 -37 -21 -39 11 -489 42 -596 18 -63 80 -172 111 -196 16 -13
99 -41 237 -78 138 -38 304 -126 415 -220 59 -50 65 -60 100 -152 53 -145 74
-341 43 -403 -31 -60 -193 -146 -246 -131 -96 28 -354 18 -390 -15 -18 -16
-25 -17 -54 -7 -59 22 -87 13 -171 -57 -49 -40 -121 -70 -220 -91 -39 -8 -74
-7 -153 5 -136 20 -246 20 -266 -1 -9 -8 -23 -41 -32 -72 -9 -31 -30 -82 -45
-112 -16 -30 -32 -76 -35 -102 -6 -44 -5 -48 19 -57 13 -5 34 -23 46 -40 25
-35 165 -130 242 -164 81 -35 152 -41 201 -16 22 11 66 25 98 30 49 9 68 8
129 -11 40 -12 86 -33 104 -49 17 -16 50 -38 73 -49 54 -27 143 -108 150 -137
4 -15 -5 -41 -25 -76 -48 -87 -93 -208 -87 -235 7 -28 71 -94 91 -94 8 0 33
20 55 44 54 57 98 74 212 82 84 6 100 4 168 -20 42 -15 82 -36 92 -49 10 -12
27 -65 39 -117 12 -52 23 -97 25 -99 2 -2 27 13 56 32 29 20 67 39 85 43 27 5
37 0 78 -37 76 -70 107 -153 84 -228 -9 -31 -9 -47 1 -70 7 -17 18 -31 24 -31
7 0 52 14 102 31 105 36 175 42 200 17 13 -13 18 -36 18 -99 l1 -81 40 -35
c77 -67 106 -76 215 -68 l97 7 36 -32 c41 -35 62 -92 51 -137 -4 -15 -20 -57
-35 -92 -36 -78 -36 -101 -4 -140 25 -28 63 -47 151 -70 63 -17 90 -44 104
-102 17 -70 40 -79 108 -45 100 51 178 22 217 -81 27 -70 43 -92 88 -115 l41
-20 20 28 c11 16 42 51 68 78 l48 49 78 -7 c76 -6 78 -6 110 24 18 16 30 34
27 40 -3 6 -26 15 -49 21 -61 15 -113 61 -126 110 -10 35 -7 53 15 127 28 91
45 284 28 309 -7 10 -18 10 -43 3 -57 -16 -106 -12 -167 16 -65 28 -106 63
-134 114 -11 19 -31 50 -44 69 -29 40 -30 62 -9 190 23 134 41 167 112 198 85
37 125 35 199 -11 73 -45 74 -46 96 -106 10 -25 33 -66 51 -91 30 -41 40 -47
92 -57 93 -19 131 -15 190 19 87 49 134 127 134 219 0 27 -5 50 -10 50 -6 0
-15 11 -22 25 -16 35 5 78 54 110 39 26 40 29 35 68 -7 49 -23 63 -85 72 -104
15 -123 58 -111 254 7 117 11 141 36 190 26 52 33 59 106 93 l77 38 0 89 c0
82 -2 92 -26 120 -53 63 -2 96 124 81 43 -6 93 -14 112 -20 34 -10 49 -2 50
26 0 7 20 28 45 48 53 44 50 54 -29 107 -68 46 -144 117 -162 152 -23 44 -45
170 -35 203 18 61 55 126 86 149 17 14 62 37 100 52 95 39 94 50 -5 55 -74 3
-84 6 -105 30 -31 36 -53 199 -36 276 6 29 11 69 11 88 0 19 7 50 15 69 15 37
33 235 21 235 -4 0 -34 -9 -68 -21 -33 -11 -70 -19 -82 -17 -27 4 -66 79 -66
129 0 44 75 220 130 305 40 60 51 111 31 142 -4 7 -50 28 -102 46 -52 18 -112
42 -135 54 -84 43 -205 196 -295 375 -16 31 -44 117 -61 190 -28 119 -31 148
-31 287 0 155 20 307 46 356 7 11 40 51 73 88 51 55 77 73 155 110 122 56 134
70 133 150 0 33 -4 87 -9 118 -7 49 -5 63 15 100 39 77 97 124 215 175 l50 21
-3 51 c-4 50 -3 53 45 96 69 64 98 71 251 57 70 -7 148 -12 175 -12 l47 0 -20
40 c-11 21 -20 46 -20 54 0 8 21 29 47 46 47 32 49 32 131 26 l84 -7 53 58
c81 90 140 119 260 133 55 6 132 21 170 33 54 17 97 22 185 23 63 1 123 2 133
3 15 1 17 13 17 109 l0 109 -39 59 c-21 32 -66 86 -100 118 -74 70 -75 86 -11
131 33 23 55 50 81 101 35 67 36 73 42 213 6 135 5 146 -13 166 -17 18 -18 28
-10 82 15 107 41 130 131 113 29 -6 53 -10 55 -10 2 0 29 -21 61 -47 62 -50
97 -60 223 -62 48 -1 66 5 135 44 134 76 215 174 215 260 0 19 -7 40 -15 48
-8 8 -58 23 -112 32 -122 22 -195 48 -238 87 -24 20 -65 91 -135 231 -55 110
-108 210 -118 220 -24 27 -228 124 -287 136 -27 5 -80 13 -117 16 -43 4 -71
12 -81 23 -23 27 -69 122 -87 182 -13 43 -21 56 -40 60 -58 14 -62 104 -14
279 56 206 42 185 192 285 l132 89 -6 132 c-9 165 11 288 62 397 28 60 52 89
130 164 l95 90 -11 95 c-13 106 -9 131 40 254 64 161 72 180 77 196 7 24 -46
39 -141 39 -66 0 -98 -6 -181 -35 -135 -46 -268 -63 -378 -47 -65 9 -103 22
-182 63 -57 29 -123 55 -154 60 -35 5 -64 17 -80 33 -30 28 -172 75 -246 82
-36 4 -60 0 -85 -13z"/>
<path id="chernihiv_rayon" fill="#1D1D36" d="M8569 20646 c-4 -4 -112 -9 -240 -11 -166 -3 -251 -9 -292 -20 -32
-8 -72 -15 -88 -15 -18 0 -82 -26 -150 -61 -93 -47 -134 -75 -185 -125 -76
-75 -99 -122 -109 -219 -11 -112 -23 -156 -66 -226 -39 -66 -40 -66 -120 -93
-66 -22 -90 -26 -134 -21 -66 9 -154 62 -229 140 -240 249 -251 258 -375 298
-80 27 -58 27 -361 -8 -69 -8 -201 -19 -295 -25 -93 -6 -187 -15 -208 -21 -25
-7 -49 -7 -75 1 -47 13 -355 13 -447 0 -44 -7 -77 -17 -89 -29 -25 -26 -34
-143 -16 -218 l14 -55 -37 -33 c-37 -34 -51 -66 -45 -106 2 -20 11 -25 52 -32
30 -5 60 -4 79 3 26 8 37 6 72 -15 41 -23 42 -26 50 -92 14 -118 11 -138 -31
-193 -49 -64 -75 -74 -168 -65 -57 5 -85 13 -121 36 -25 16 -48 29 -51 29 -3
0 -41 -23 -84 -52 l-79 -52 15 -34 c17 -42 18 -102 2 -136 -6 -14 -28 -34 -48
-43 -34 -16 -37 -21 -33 -49 8 -49 -19 -89 -77 -115 -41 -18 -53 -29 -57 -52
-8 -38 -37 -55 -108 -63 -69 -8 -95 -19 -95 -39 0 -31 -38 -55 -86 -55 -25 0
-70 -7 -100 -16 l-54 -15 0 -110 c0 -84 4 -115 16 -134 15 -23 15 -27 -9 -68
-36 -62 -107 -124 -159 -138 -23 -7 -93 -13 -154 -14 -126 -2 -191 -23 -186
-60 8 -60 2 -144 -13 -182 -19 -48 -89 -110 -138 -124 -36 -10 -60 -44 -94
-134 -11 -27 -36 -75 -55 -106 -33 -50 -46 -61 -135 -106 -128 -65 -136 -82
-71 -151 57 -61 64 -98 48 -238 -11 -98 -11 -99 -53 -137 -23 -21 -97 -64
-164 -97 -68 -33 -123 -64 -123 -70 0 -13 33 -27 82 -35 38 -6 98 -61 98 -91
0 -28 -30 -87 -65 -125 -26 -29 -35 -49 -37 -77 -2 -55 2 -152 8 -193 4 -30 0
-42 -31 -80 -45 -54 -74 -68 -146 -69 -31 0 -76 -7 -99 -15 -24 -8 -67 -18
-96 -21 -30 -4 -60 -12 -68 -18 -9 -7 -16 -42 -20 -103 -6 -98 -20 -143 -60
-196 -15 -19 -26 -37 -26 -41 0 -4 16 -26 35 -49 51 -59 48 -96 -10 -158 -44
-47 -45 -50 -45 -112 l0 -64 -77 -74 c-43 -41 -97 -89 -120 -107 -44 -34 -63
-76 -63 -139 0 -29 7 -37 64 -73 100 -64 110 -124 29 -186 -37 -28 -63 -77
-63 -118 0 -16 17 -42 48 -73 26 -26 52 -56 57 -66 8 -16 14 -17 38 -8 40 15
161 14 201 -3 24 -10 38 -25 49 -55 28 -69 22 -100 -29 -169 -58 -78 -57 -100
9 -123 26 -10 54 -23 62 -29 28 -23 48 -113 54 -243 l6 -128 54 -19 c29 -9 62
-27 73 -37 27 -27 34 -90 15 -135 -22 -52 -57 -72 -123 -70 -72 2 -89 -16 -99
-96 -8 -73 -1 -114 26 -137 16 -16 32 -17 112 -12 125 8 138 1 154 -83 7 -36
12 -109 13 -163 0 -108 19 -168 88 -280 51 -83 55 -141 14 -207 l-31 -50 30
-29 c28 -29 29 -32 29 -129 0 -95 -1 -101 -27 -129 -30 -32 -127 -66 -221 -79
-67 -9 -87 -33 -79 -99 6 -58 -12 -73 -123 -105 -92 -26 -89 -19 -59 -122 20
-72 1 -165 -60 -287 -54 -107 -61 -155 -46 -289 l8 -62 -37 -35 c-45 -42 -85
-50 -176 -35 -39 7 -74 10 -77 7 -12 -13 10 -45 42 -60 24 -11 36 -25 40 -44
3 -15 10 -41 15 -58 23 -74 32 -218 21 -331 -6 -62 -9 -130 -6 -151 5 -32 -2
-57 -44 -148 -28 -60 -51 -123 -51 -140 0 -16 -20 -70 -44 -120 -40 -81 -45
-100 -51 -187 -3 -53 -10 -112 -16 -130 -17 -60 -10 -160 16 -249 24 -79 26
-98 28 -346 l2 -263 37 -36 c44 -44 55 -42 102 23 48 66 95 95 162 101 63 5
83 -7 116 -73 33 -64 34 -65 76 -51 20 7 66 16 101 20 54 6 70 4 105 -13 22
-11 66 -27 96 -35 52 -15 61 -22 145 -121 110 -129 130 -165 143 -252 29 -188
40 -367 23 -377 -5 -3 -12 -23 -15 -43 -4 -21 -23 -87 -43 -147 -31 -95 -35
-115 -28 -169 14 -124 40 -150 195 -191 108 -29 236 -74 295 -103 22 -11 53
-23 69 -27 16 -4 43 -23 60 -43 17 -19 57 -48 88 -63 78 -38 153 -104 172
-150 26 -65 30 -174 11 -290 -18 -107 -61 -229 -95 -265 -10 -11 -21 -37 -25
-58 -4 -20 -20 -53 -36 -73 -16 -20 -29 -42 -29 -49 0 -7 -18 -40 -40 -73 -41
-61 -50 -104 -30 -143 18 -33 98 -26 183 16 39 19 78 35 87 35 9 0 34 -13 56
-30 21 -16 44 -30 50 -30 25 0 131 -81 163 -124 38 -50 100 -86 147 -86 34 0
54 19 99 90 15 25 48 62 73 84 42 35 50 38 94 34 31 -3 85 -24 159 -62 78 -39
122 -56 149 -56 38 0 40 2 76 70 20 39 52 84 72 101 l35 31 116 -7 c64 -4 148
-16 186 -26 100 -27 272 -58 325 -59 55 0 84 18 110 69 20 41 64 82 110 106
27 14 32 13 86 -15 49 -26 63 -29 105 -24 46 6 48 5 55 -19 3 -15 0 -49 -7
-76 -16 -65 -4 -84 50 -75 33 5 41 2 64 -26 31 -36 34 -70 11 -106 -14 -20
-16 -42 -11 -121 3 -60 11 -100 19 -108 7 -7 36 -17 63 -22 28 -6 57 -13 65
-17 38 -15 38 10 2 84 -34 69 -37 82 -37 161 0 73 3 90 20 109 28 31 100 65
168 80 32 8 60 16 62 20 2 4 0 23 -6 43 -21 76 37 150 138 176 22 6 51 19 63
29 l22 18 -21 42 c-27 53 -27 74 4 110 33 39 97 68 168 77 40 5 70 16 100 38
l42 31 -65 11 c-139 23 -201 92 -202 225 0 63 11 82 74 120 29 18 55 34 57 36
1 1 -4 24 -13 51 -14 44 -14 54 2 118 16 68 18 71 64 93 38 19 70 25 170 30
l123 7 -40 30 c-130 96 -167 141 -186 225 -5 19 -11 47 -14 61 -10 39 15 56
92 64 108 12 174 54 243 155 30 44 36 60 27 68 -7 6 -55 30 -107 55 -107 49
-128 70 -243 239 -116 170 -127 282 -38 383 41 47 51 131 22 179 -12 19 -27
36 -35 39 -19 8 -135 165 -156 212 -10 22 -21 70 -25 106 -6 65 -5 68 25 103
78 88 232 124 481 112 l136 -7 50 40 c66 52 111 98 190 196 100 122 106 137
113 296 5 105 10 143 24 163 25 39 139 121 231 166 79 39 88 41 335 79 31 4
46 12 48 24 3 13 -4 17 -32 17 -51 0 -79 16 -109 63 -38 59 -36 97 9 137 49
42 64 47 194 59 l113 11 56 53 c61 58 178 132 226 141 23 5 50 -3 115 -35 l85
-41 170 11 c94 6 193 17 220 24 383 107 376 106 713 88 136 -8 214 -8 265 0
40 6 183 12 318 14 184 2 252 7 268 17 12 7 46 54 76 103 64 109 160 229 277
349 82 83 91 90 140 97 29 5 74 6 99 3 l46 -6 21 53 c11 30 24 65 27 78 9 30
68 95 111 121 18 12 49 43 69 71 52 70 45 103 -45 207 -59 68 -83 86 -167 131
-138 73 -226 93 -428 95 -159 2 -184 7 -219 42 -24 23 -19 79 10 145 15 33 25
62 22 65 -3 2 -29 8 -57 13 -29 5 -57 13 -63 19 -6 6 -11 126 -14 334 -3 313
-3 325 19 385 l22 62 -40 41 -40 41 -1 122 c-2 134 2 144 81 257 55 77 165
295 165 326 0 16 -27 88 -61 159 -63 137 -84 212 -113 420 -9 61 -23 135 -31
165 -8 30 -15 91 -15 135 0 93 -18 160 -57 216 -32 44 -30 44 -171 58 -127 13
-163 28 -197 80 -22 32 -28 57 -34 129 -10 114 -30 150 -116 199 -73 42 -85
62 -85 142 0 33 -7 94 -16 137 -21 99 -15 151 25 212 38 60 38 71 4 104 -39
36 -60 45 -128 53 -68 8 -147 46 -170 82 -9 13 -21 65 -26 116 -13 118 -42
169 -120 213 -30 16 -83 51 -119 77 -36 27 -89 55 -118 63 -57 17 -91 45 -93
78 -1 12 -1 50 1 85 3 86 -28 157 -74 166 -44 9 -86 26 -86 35 0 5 -3 15 -6
23 -3 9 10 32 33 58 l38 42 0 147 c0 168 0 168 114 291 65 72 81 101 81 154 0
27 -9 43 -45 78 -52 52 -60 96 -25 140 30 37 60 108 60 140 0 74 60 106 197
107 l92 0 52 46 c29 26 67 53 85 60 36 15 86 18 98 7 4 -4 44 -21 89 -37 101
-36 197 -41 224 -12 14 15 15 19 4 23 -39 15 -73 60 -78 103 -5 44 -7 46 -52
60 -66 21 -73 42 -61 171 13 139 6 159 -70 200 -90 48 -103 67 -111 157 -4 42
-3 82 2 88 5 6 41 28 79 48 52 27 89 38 137 43 59 6 67 9 85 37 44 70 -3 334
-76 431 -20 26 -36 56 -37 68 0 12 0 122 1 243 l1 222 -116 7 c-65 4 -141 5
-171 1 -39 -4 -61 -2 -77 8 -12 7 -43 16 -69 20 -26 3 -76 20 -110 37 -60 31
-70 32 -233 40 -93 5 -186 13 -205 19 -19 5 -71 10 -115 10 -44 0 -147 10
-230 22 -82 11 -188 22 -235 23 -47 1 -123 5 -170 10 -47 4 -88 4 -91 1z
m-2370 -5251 c33 -17 54 -61 54 -115 0 -22 2 -40 4 -40 2 0 20 7 39 15 61 25
129 30 178 11 53 -20 66 -46 66 -132 0 -62 1 -65 23 -64 55 5 80 -2 106 -28
15 -15 30 -33 32 -41 4 -10 17 -7 59 14 67 34 161 40 203 12 66 -43 90 -183
46 -274 -26 -54 -105 -125 -159 -143 -57 -19 -63 -36 -56 -144 8 -107 -2 -147
-44 -191 -29 -30 -32 -39 -39 -133 -10 -132 -27 -154 -141 -177 l-55 -11 3
-58 c4 -75 -12 -124 -44 -132 -14 -4 -51 -4 -82 -1 l-57 5 -60 -63 c-60 -62
-60 -62 -148 -79 -122 -24 -151 -14 -172 57 -8 28 -18 82 -21 118 l-7 67 -104
-2 c-100 -1 -105 0 -125 24 -31 38 -22 134 20 224 l32 69 -43 46 c-63 67 -92
125 -116 227 -26 113 -26 129 -1 154 26 26 73 26 151 -1 33 -12 63 -18 67 -14
4 3 0 18 -9 33 -13 24 -23 28 -79 33 -59 6 -67 10 -103 48 -48 52 -46 77 13
165 29 43 40 69 40 97 0 21 4 40 9 43 4 3 11 19 14 35 4 21 17 36 39 47 62 32
175 122 224 178 52 60 129 114 179 127 17 4 31 7 33 8 2 1 16 -6 31 -14z"/>
<path id="chernihiv_city" fill="#1D1D36" d="M6100 15272 c-19 -15 -66 -59 -105 -97 -38 -39 -106 -94 -150 -123
-75 -51 -79 -56 -77 -87 4 -38 -18 -95 -54 -142 -35 -46 -27 -59 41 -65 34 -3
66 -12 83 -25 55 -41 94 -169 62 -207 -24 -30 -85 -38 -152 -21 -33 8 -63 14
-65 11 -2 -2 2 -31 10 -65 17 -73 53 -128 124 -189 29 -25 53 -53 53 -63 0 -9
-16 -43 -35 -75 -36 -59 -66 -142 -58 -157 2 -4 52 -4 111 -1 92 6 109 4 121
-9 7 -10 16 -59 21 -116 4 -55 11 -104 14 -110 9 -14 50 -14 98 0 24 6 48 23
65 46 16 20 41 50 56 66 27 28 30 29 91 22 l63 -6 0 71 c0 102 17 122 114 135
l74 10 8 100 c8 116 18 145 55 167 l27 17 0 125 c0 150 8 165 106 212 36 17
79 48 97 68 28 32 32 44 32 91 0 79 -4 85 -60 85 -34 0 -56 -7 -81 -25 -19
-13 -44 -32 -57 -41 -32 -23 -65 -6 -100 51 -26 43 -28 44 -79 45 -39 0 -58 6
-78 23 -24 20 -27 32 -32 106 l-6 83 -44 -5 c-24 -2 -61 -16 -82 -32 -34 -23
-45 -26 -85 -20 -77 12 -87 28 -76 129 3 22 0 41 -5 42 -6 2 -26 -9 -45 -24z"/>
<path id="koryukivka_rayon" fill="#1D1D36" d="M11000 20557 c-3 -3 -40 -10 -82 -16 -59 -8 -82 -16 -101 -35 -34
-34 -84 -46 -214 -53 l-113 -6 0 -229 0 -230 33 -39 c49 -57 91 -226 92 -371
0 -102 -1 -108 -30 -150 -37 -52 -85 -78 -147 -78 -61 0 -133 -51 -133 -94 0
-25 9 -34 65 -65 55 -31 69 -44 93 -91 26 -52 27 -58 21 -161 l-7 -107 36 -11
c49 -16 77 -54 77 -102 0 -32 5 -41 28 -53 42 -22 63 -51 69 -95 5 -37 2 -44
-30 -75 -73 -69 -193 -86 -287 -42 -30 14 -68 26 -85 26 -16 0 -47 5 -68 11
-37 10 -40 9 -81 -29 -65 -60 -82 -66 -195 -72 l-105 -5 -17 -57 c-9 -32 -29
-78 -43 -102 l-26 -45 23 -16 c34 -22 67 -87 67 -132 0 -77 -28 -143 -89 -207
-31 -34 -70 -77 -85 -96 l-28 -34 6 -116 c5 -88 4 -126 -8 -163 -14 -47 -14
-48 9 -57 27 -10 32 -18 63 -90 15 -35 26 -86 30 -139 l7 -83 63 -24 c35 -13
83 -41 107 -62 24 -21 70 -53 102 -70 99 -55 132 -89 148 -157 7 -33 16 -87
20 -120 4 -33 9 -67 11 -76 7 -24 58 -42 115 -40 61 2 91 -13 168 -85 83 -76
87 -101 32 -196 -46 -79 -47 -90 -26 -201 8 -43 15 -99 15 -123 0 -41 3 -45
39 -64 52 -26 107 -84 137 -142 19 -37 24 -63 24 -118 0 -39 4 -80 10 -90 13
-24 62 -40 125 -40 62 0 147 -15 183 -32 38 -19 98 -112 122 -189 13 -44 20
-95 20 -148 0 -46 8 -115 19 -159 10 -42 24 -118 31 -169 20 -161 38 -225 102
-362 89 -195 89 -203 -2 -378 -40 -76 -101 -180 -136 -231 -62 -92 -64 -95
-54 -135 5 -23 10 -59 10 -79 0 -28 7 -42 28 -58 56 -45 65 -96 31 -182 -19
-50 -20 -64 -13 -340 l7 -288 26 0 c90 -1 123 -96 70 -202 -11 -21 -19 -41
-19 -46 0 -4 64 -9 143 -9 166 -1 308 -26 388 -67 51 -27 79 -28 79 -3 0 18
49 63 83 76 16 6 93 11 171 11 170 0 206 5 206 30 0 34 12 51 53 72 36 18 52
20 123 14 l82 -6 21 33 c22 35 111 124 151 151 13 9 37 16 53 16 31 0 178 -85
290 -169 37 -28 77 -51 88 -51 11 0 34 10 50 23 42 30 103 30 147 -2 18 -13
35 -21 38 -18 3 3 1 37 -4 76 -16 111 18 188 72 163 22 -10 61 -9 144 4 l33 5
-6 53 c-9 66 13 119 58 143 34 17 81 19 362 11 138 -4 201 -9 230 -21 170 -66
187 -70 273 -64 58 4 100 14 139 32 98 45 173 26 173 -45 0 -16 11 -58 25 -93
25 -62 27 -64 98 -99 105 -52 228 -90 278 -86 40 3 48 8 106 78 34 41 77 83
95 93 40 21 98 22 167 1 l52 -15 46 52 c26 28 55 62 66 75 35 45 69 55 180 52
l102 -3 19 39 c11 22 21 60 24 86 4 44 2 49 -49 109 -95 110 -106 146 -66 216
18 31 35 45 77 62 71 29 115 29 225 -2 50 -14 111 -25 137 -25 55 0 176 -42
198 -69 9 -10 34 -24 55 -31 22 -7 97 -44 167 -83 118 -64 131 -69 170 -63 89
14 156 75 197 180 18 43 40 95 51 116 l20 39 -32 26 c-17 14 -49 35 -72 47
-22 11 -55 33 -73 48 -19 17 -54 33 -87 41 -57 12 -56 13 -183 -35 -55 -20
-154 -8 -238 29 -78 35 -251 150 -271 180 -8 12 -28 29 -45 35 -41 17 -59 47
-59 95 0 56 25 148 54 198 13 23 27 58 31 77 9 45 37 99 70 139 27 31 27 31
126 31 55 0 145 -7 202 -16 100 -15 104 -15 186 7 69 19 95 31 143 71 32 27
77 56 101 65 54 20 380 43 503 36 107 -7 152 5 190 50 26 31 26 35 20 117 -6
92 -23 164 -57 247 -28 69 -105 132 -258 211 -107 55 -220 90 -378 118 -44 8
-134 106 -180 199 -48 94 -61 169 -84 455 -25 325 -14 359 121 390 43 10 65
23 99 57 l44 43 -6 123 c-6 132 -26 222 -77 355 -26 68 -39 88 -82 124 -137
116 -147 139 -79 180 102 60 323 228 386 293 69 72 71 73 135 80 73 8 169 52
194 87 29 41 21 83 -25 125 -56 52 -127 147 -156 210 -16 35 -27 82 -32 145
-7 81 -13 100 -44 151 -19 31 -51 75 -71 97 -19 22 -38 52 -42 67 -17 73 -65
85 -194 49 -51 -14 -100 -32 -109 -40 -9 -8 -41 -25 -71 -39 -30 -14 -91 -53
-135 -86 -80 -61 -124 -78 -168 -67 -26 6 -103 98 -136 163 -12 24 -35 64 -51
90 -17 26 -30 54 -30 63 0 9 -13 26 -28 37 -15 11 -53 58 -84 104 -102 154
-101 154 -418 150 -309 -3 -419 11 -480 60 -40 32 -40 33 -40 103 0 96 -9 107
-52 71 -98 -83 -208 -84 -208 -2 0 18 -10 53 -22 77 l-23 45 -53 -3 c-72 -5
-92 13 -92 82 0 74 15 118 55 156 39 38 45 66 15 75 -29 9 -65 69 -85 138 -24
82 -50 110 -109 112 -26 1 -52 7 -59 14 -16 16 -21 135 -8 206 6 32 22 80 35
106 l25 46 -78 6 c-91 6 -149 29 -162 65 -8 21 -2 41 32 114 23 48 39 91 36
94 -4 4 -37 -13 -74 -38 -84 -57 -199 -118 -221 -118 -9 0 -36 -17 -61 -38
-68 -56 -94 -73 -221 -143 l-115 -63 -107 2 -107 3 -33 -37 c-18 -20 -80 -75
-137 -120 -130 -104 -169 -118 -295 -112 -77 5 -106 12 -186 45 -241 101 -287
112 -370 88 -30 -9 -86 -22 -125 -30 -38 -7 -140 -43 -225 -80 -179 -76 -300
-104 -373 -84 -51 13 -72 31 -101 84 -20 38 -21 52 -18 248 3 240 3 240 -84
300 -56 39 -178 87 -223 87 -14 0 -60 10 -101 21 -58 16 -116 22 -255 26 -99
3 -182 3 -185 0z"/>
<path id="nizhyn_rayon" fill="#1D1D36" d="M16153 13375 c-18 -8 -33 -21 -33 -30 0 -9 25 -46 55 -81 78 -93 85
-108 84 -208 0 -68 -4 -89 -17 -98 -10 -7 -28 -30 -42 -50 -41 -62 -59 -67
-195 -54 l-80 8 -65 -76 c-40 -46 -82 -84 -108 -97 l-44 -22 -42 22 c-24 11
-62 21 -84 21 -38 0 -45 -4 -82 -51 -25 -32 -40 -61 -40 -79 0 -41 -19 -51
-118 -57 -82 -5 -97 -3 -188 27 -54 18 -137 51 -183 73 -93 45 -105 59 -147
173 l-26 72 -53 -23 c-69 -31 -202 -43 -276 -25 -30 7 -88 26 -129 43 -72 29
-82 30 -240 32 -91 1 -184 5 -207 10 -23 4 -63 4 -89 0 l-46 -7 6 -62 c12
-108 -17 -139 -141 -151 -113 -12 -105 -3 -97 -104 8 -109 3 -131 -35 -154
-50 -29 -89 -23 -131 23 -20 22 -40 40 -45 40 -4 0 -20 -11 -37 -25 -23 -19
-41 -25 -79 -25 -58 0 -75 8 -146 65 -29 24 -80 59 -115 79 -35 21 -77 46 -94
57 l-31 19 -41 -32 c-51 -41 -92 -95 -92 -122 -1 -50 -10 -53 -153 -42 l-98 8
6 -39 c4 -25 2 -44 -7 -56 -15 -19 -68 -24 -339 -30 -105 -2 -139 -12 -139
-41 0 -6 34 -47 75 -91 104 -111 131 -153 140 -221 6 -51 4 -62 -25 -118 -39
-75 -55 -93 -101 -116 -38 -20 -99 -83 -99 -103 0 -7 -13 -43 -28 -82 -19 -46
-37 -74 -53 -82 -13 -7 -60 -13 -105 -13 -77 0 -83 -2 -126 -35 -48 -36 -209
-217 -253 -284 -14 -21 -40 -67 -58 -102 -26 -51 -44 -72 -89 -103 l-58 -39
-217 -3 c-228 -3 -365 -13 -446 -35 -41 -11 -52 -10 -75 3 -44 26 -392 35
-497 14 -134 -28 -238 -56 -285 -78 -30 -14 -71 -21 -120 -23 -41 -2 -133 -6
-205 -10 l-130 -6 -83 40 -83 41 -55 -31 c-30 -18 -87 -60 -125 -95 -38 -35
-70 -64 -72 -64 -1 -1 -38 -7 -82 -15 -44 -8 -103 -15 -131 -15 -27 0 -55 -5
-61 -11 -18 -18 -3 -39 28 -39 76 0 145 -60 136 -118 -11 -65 -73 -122 -134
-122 -15 0 -81 -9 -146 -20 -131 -22 -192 -48 -297 -127 l-65 -48 -6 -130 c-5
-111 -9 -138 -31 -185 -48 -104 -204 -287 -323 -379 l-60 -46 -215 0 c-228 0
-270 -6 -331 -48 -32 -22 -34 -27 -31 -73 2 -40 11 -62 49 -117 25 -38 72 -97
104 -132 71 -79 85 -119 70 -212 -10 -63 -44 -136 -75 -163 -22 -17 -20 -85 3
-136 18 -39 91 -147 154 -228 31 -39 139 -98 252 -136 37 -13 52 -24 59 -43 8
-23 1 -38 -60 -128 -100 -147 -187 -215 -291 -227 -39 -4 -43 -7 -37 -26 13
-42 38 -68 130 -137 103 -77 124 -101 124 -140 0 -60 -75 -90 -243 -97 -139
-5 -138 -5 -152 -69 l-7 -33 70 0 c76 0 96 -12 90 -52 -2 -18 -31 -38 -130
-93 l-128 -70 0 -46 c0 -68 28 -90 137 -106 89 -13 118 -28 134 -72 17 -43
-53 -135 -135 -178 -17 -9 -64 -22 -105 -29 -41 -7 -78 -17 -84 -23 -6 -6 -4
-23 7 -51 17 -42 20 -77 10 -105 -10 -26 -86 -72 -147 -90 -67 -19 -78 -34
-64 -87 8 -31 7 -47 -6 -73 -20 -42 -48 -61 -112 -75 -27 -6 -69 -20 -92 -30
-42 -19 -43 -20 -43 -69 0 -35 10 -72 32 -121 26 -59 36 -72 59 -77 47 -9 53
-24 36 -95 -32 -131 -33 -123 11 -136 100 -30 189 -142 332 -417 81 -157 120
-264 120 -335 0 -44 -36 -159 -57 -182 -32 -36 -140 -97 -210 -119 l-73 -23 0
-50 0 -50 128 -126 c71 -69 143 -138 162 -153 l33 -28 61 21 c72 24 88 25 126
5 35 -18 47 -51 60 -180 15 -133 25 -169 61 -210 37 -41 58 -43 145 -14 57 19
67 20 106 8 38 -12 47 -21 76 -76 26 -49 38 -63 56 -63 24 0 84 39 149 97 20
18 40 33 45 33 4 0 59 -27 122 -61 236 -124 452 -209 534 -209 57 0 80 20 164
143 62 91 81 101 172 93 201 -18 336 -42 434 -76 33 -11 66 -20 74 -20 8 0 39
23 68 50 72 68 104 80 213 80 l89 0 26 44 c48 81 133 135 228 144 58 5 58 5
88 58 70 121 139 139 473 121 l98 -5 40 55 c22 30 65 70 94 88 62 40 68 52 44
84 -43 54 -31 148 25 204 26 26 37 52 55 123 13 49 27 97 32 106 17 32 64 48
141 48 78 0 110 13 162 65 17 17 33 24 44 20 12 -3 26 3 37 15 11 12 45 37 78
57 l58 35 95 -7 94 -7 0 47 c0 57 12 80 52 101 46 24 110 14 161 -25 23 -18
60 -45 81 -61 24 -19 51 -30 71 -30 20 0 39 -8 51 -21 25 -28 87 -56 144 -64
39 -5 53 -1 98 25 93 54 104 92 71 248 -10 51 -10 77 -1 133 7 38 12 112 12
165 0 63 5 104 14 123 30 56 115 73 296 56 148 -13 175 28 94 144 -19 29 -44
73 -55 98 -10 25 -52 95 -93 156 -40 62 -94 146 -120 187 -26 41 -68 100 -94
131 -26 30 -79 94 -118 140 -40 47 -95 103 -124 125 -56 42 -81 77 -100 139
-7 22 -22 50 -34 63 -19 21 -21 35 -21 140 0 121 18 313 37 392 6 25 12 85 13
134 1 80 3 90 24 107 13 11 34 19 46 19 19 0 27 10 42 57 12 35 29 64 46 77
24 17 32 18 76 8 120 -28 246 67 291 220 18 59 26 71 70 103 43 31 60 37 137
46 143 17 158 23 203 83 60 79 116 223 134 340 14 95 16 100 57 142 24 24 51
46 61 49 33 11 77 -23 107 -83 55 -109 69 -112 222 -38 52 25 102 46 112 46
10 0 32 -14 49 -30 28 -29 29 -34 26 -101 l-3 -71 46 6 c69 9 159 -31 159 -70
0 -23 45 -64 77 -70 34 -7 31 -12 48 71 3 15 22 36 46 52 38 25 47 27 198 31
106 3 170 1 194 -7 36 -12 101 -77 149 -150 39 -58 73 -57 122 3 20 24 36 52
36 61 0 9 -12 47 -27 83 -31 76 -33 139 -7 180 9 15 49 59 89 97 70 67 73 72
80 129 4 32 5 86 1 120 -5 55 -4 65 14 81 15 13 29 16 57 11 21 -3 79 -1 128
5 l90 11 85 84 c47 46 94 84 104 84 26 0 171 -81 247 -138 43 -32 71 -62 88
-95 24 -47 24 -52 13 -118 -7 -38 -12 -93 -12 -122 1 -66 54 -270 72 -275 7
-3 21 -11 30 -19 27 -24 165 -52 253 -53 93 0 286 24 363 46 50 14 54 14 83
-6 16 -12 41 -44 54 -71 14 -26 39 -59 56 -71 17 -13 38 -36 46 -53 9 -16 76
-89 149 -161 74 -72 134 -135 134 -141 0 -6 -15 -51 -34 -99 -24 -65 -35 -112
-40 -177 -12 -163 21 -218 175 -296 146 -74 228 -131 274 -193 47 -63 61 -101
70 -190 8 -75 3 -71 120 -95 56 -12 85 -57 85 -132 0 -100 36 -122 195 -117
61 2 100 8 122 19 18 9 44 17 58 17 15 0 71 25 126 55 133 73 127 71 180 89
78 28 83 34 70 95 -24 114 -7 167 67 203 36 17 54 19 100 14 32 -4 80 -9 109
-13 l51 -6 25 50 c26 51 128 153 199 201 22 14 71 36 107 48 48 15 67 26 69
40 5 34 -32 87 -92 134 -98 75 -100 132 -10 230 59 63 202 173 272 209 23 11
46 31 53 42 6 12 14 69 18 128 5 67 14 118 24 138 22 42 80 88 142 114 84 35
112 96 84 189 -23 77 15 132 129 186 43 20 78 37 79 38 1 1 -11 42 -27 92 -34
107 -49 248 -30 293 11 29 61 61 93 61 11 0 19 20 27 68 7 38 11 74 9 80 -3 8
-28 -1 -69 -23 -36 -19 -78 -35 -95 -35 -16 0 -41 -7 -55 -15 -61 -35 -118 -7
-230 110 -69 71 -109 89 -210 89 -79 1 -89 3 -142 36 -41 26 -64 48 -83 84
-26 47 -26 51 -15 115 15 80 36 117 94 164 23 20 62 66 86 102 l44 67 -21 41
c-33 67 -72 173 -79 217 -10 58 21 163 57 200 40 39 121 77 201 94 91 19 203
94 235 156 25 50 54 212 41 232 -30 49 38 130 162 191 57 28 90 51 100 69 14
26 13 31 -12 77 -15 27 -31 73 -35 102 -8 53 -9 54 -45 57 -33 3 -40 -2 -75
-44 -95 -118 -108 -123 -208 -75 -76 36 -111 73 -133 141 -24 74 -39 81 -107
47 -71 -34 -100 -34 -158 3 -40 25 -48 36 -62 84 -14 47 -21 57 -43 62 -81 18
-104 27 -148 57 -54 35 -88 81 -105 137 -10 34 -8 45 31 130 58 130 55 135
-81 135 -95 0 -108 2 -154 28 -118 65 -175 141 -175 234 0 18 -4 33 -8 33 -4
0 -55 -16 -112 -35 -152 -51 -159 -49 -208 56 -30 65 -31 67 -17 125 15 65 6
103 -33 138 -21 18 -22 18 -55 -3 -18 -11 -42 -29 -52 -41 -11 -12 -31 -20
-49 -20 -76 0 -95 20 -116 125 -25 130 -27 133 -77 155 -48 21 -112 25 -197
11 -39 -7 -57 -17 -94 -56 -74 -75 -119 -83 -196 -35 -26 17 -55 44 -64 60 -9
16 -21 30 -26 30 -5 0 -38 -15 -75 -32 -54 -27 -77 -33 -131 -33 -62 1 -71 4
-193 73 -74 42 -151 77 -180 84 -37 8 -61 21 -83 44 -35 37 -101 59 -148 50
-19 -4 -61 4 -111 19 -90 28 -135 31 -182 10z"/>
<path id="pryluky_rayon" fill="#1D1D36" d="M20876 9382 c-2 -4 -13 -37 -25 -74 -23 -68 -104 -214 -144 -256 -30
-33 -63 -48 -140 -68 l-66 -16 -148 37 c-92 22 -180 52 -231 77 -46 22 -86 38
-88 35 -2 -2 3 -23 11 -47 8 -24 19 -68 24 -99 11 -71 3 -81 -104 -131 -101
-47 -110 -57 -96 -107 26 -91 3 -169 -71 -243 -27 -26 -56 -44 -85 -51 -67
-17 -93 -55 -93 -134 0 -72 -16 -157 -36 -197 -20 -39 -53 -67 -103 -90 -84
-36 -271 -193 -271 -227 0 -6 10 -15 21 -22 50 -26 108 -92 130 -146 20 -51
21 -61 11 -112 -15 -73 -36 -93 -101 -96 -33 -2 -66 -12 -95 -29 -72 -42 -162
-132 -200 -200 -52 -93 -48 -91 -175 -71 -60 10 -121 15 -135 11 -30 -7 -33
-29 -15 -119 10 -49 9 -60 -8 -94 -20 -38 -35 -48 -188 -120 -33 -16 -109 -55
-170 -86 -127 -65 -206 -82 -345 -75 -148 9 -225 64 -236 170 -10 82 -11 85
-51 93 -64 11 -121 41 -136 72 -8 15 -17 62 -21 103 -5 64 -12 83 -42 127 -42
61 -82 89 -239 168 -104 53 -125 67 -166 118 -26 32 -53 79 -60 105 -19 65
-16 244 6 302 9 25 23 64 31 87 l16 42 -38 33 c-69 60 -214 208 -214 217 0 6
-21 32 -47 58 -27 26 -57 61 -68 77 l-21 29 -184 -25 c-204 -28 -268 -26 -410
13 -41 11 -91 23 -110 27 -40 8 -74 59 -89 133 -5 24 -19 82 -31 128 -22 85
-23 166 -4 284 6 35 3 41 -33 75 -22 20 -77 59 -122 86 l-83 49 -66 -66 c-75
-75 -106 -88 -233 -106 l-86 -13 -7 -84 c-8 -108 -27 -145 -110 -218 -36 -32
-69 -69 -72 -82 -4 -14 5 -61 21 -113 34 -111 30 -140 -32 -216 -53 -64 -89
-86 -142 -87 -66 -1 -120 42 -176 139 -28 48 -68 63 -173 63 -67 0 -93 -4
-102 -15 -8 -9 -30 -15 -57 -15 -33 0 -45 -4 -49 -17 -17 -55 -47 -105 -69
-115 -21 -10 -38 -8 -95 11 -68 22 -90 40 -143 115 -22 31 -31 32 -104 6 -77
-27 -101 -26 -115 6 -9 19 -9 39 0 83 14 68 15 101 3 101 -5 0 -44 -16 -86
-37 -100 -47 -158 -53 -205 -21 -19 13 -50 46 -68 73 -52 76 -55 73 -80 -82
-12 -68 -78 -232 -117 -291 -14 -20 -37 -54 -51 -75 -33 -50 -67 -63 -194 -77
-136 -15 -155 -26 -175 -94 -19 -66 -81 -163 -124 -196 -17 -14 -46 -37 -64
-51 -37 -30 -133 -52 -188 -43 -36 6 -36 6 -47 -38 -14 -54 -45 -96 -75 -100
-18 -2 -21 -8 -18 -33 8 -48 5 -77 -12 -120 -8 -22 -20 -94 -27 -160 -7 -66
-16 -147 -20 -180 -6 -51 -4 -67 16 -110 13 -28 28 -74 35 -103 8 -41 20 -62
52 -93 23 -21 44 -39 49 -39 4 0 35 -33 69 -72 33 -40 77 -82 97 -93 27 -16
58 -59 146 -205 62 -102 129 -209 150 -238 22 -30 61 -95 89 -145 122 -224
124 -231 84 -302 -38 -69 -75 -80 -264 -80 l-163 0 1 -81 c0 -44 -5 -115 -12
-158 -11 -64 -11 -86 1 -134 22 -87 18 -179 -8 -230 -30 -57 -125 -127 -193
-141 -60 -13 -154 5 -228 43 -25 14 -72 37 -104 51 -31 15 -81 46 -109 71 -66
56 -88 58 -88 7 0 -51 -18 -82 -60 -105 -30 -17 -47 -18 -122 -13 -81 6 -89 5
-128 -20 l-41 -26 43 -31 c60 -44 73 -62 114 -159 38 -91 56 -109 112 -109 38
0 122 -42 153 -76 14 -16 47 -59 72 -96 26 -36 58 -75 72 -86 14 -11 32 -36
40 -56 18 -43 137 -171 178 -192 37 -20 185 -11 272 16 33 10 80 21 105 24 41
6 51 3 105 -32 76 -50 136 -121 170 -201 l26 -63 -25 -38 c-14 -21 -41 -51
-61 -67 -30 -24 -35 -34 -35 -69 0 -34 -7 -49 -40 -87 -76 -86 -137 -105 -231
-72 -52 19 -46 24 -128 -118 -57 -100 -66 -127 -39 -127 24 0 150 -95 187
-141 60 -76 82 -154 79 -278 l-3 -102 48 -45 48 -46 107 5 c59 2 125 10 148
17 39 13 43 12 78 -15 42 -32 96 -102 96 -125 0 -16 -100 -192 -126 -221 -12
-14 -7 -28 37 -115 29 -54 64 -117 79 -139 68 -99 150 -234 166 -273 23 -58
43 -52 61 18 12 49 71 153 98 172 5 4 29 8 52 8 23 0 81 9 128 20 47 11 105
20 128 20 63 -1 154 -35 198 -75 57 -51 98 -49 175 9 65 48 113 97 194 196 29
36 95 109 146 164 l93 99 76 7 c41 4 81 13 89 19 8 6 17 31 20 55 8 53 43 88
111 110 61 20 70 20 224 10 l123 -7 18 -31 c24 -41 92 -123 108 -130 20 -9 61
16 117 71 48 46 56 50 166 77 148 36 176 30 265 -55 50 -49 63 -67 68 -102 6
-36 28 -95 55 -147 14 -25 113 -78 196 -103 148 -46 314 -88 376 -97 34 -5
148 -12 253 -16 l191 -6 40 32 c57 46 89 60 134 60 35 0 44 -6 93 -60 l53 -60
165 -6 c188 -8 172 -14 225 85 42 79 165 176 293 231 90 39 106 42 227 51 182
12 189 14 322 65 133 52 148 62 157 106 3 18 12 39 20 47 7 9 19 34 26 56 7
22 23 59 37 83 42 75 176 144 347 181 44 10 83 24 87 32 4 8 24 60 45 116 60
165 67 174 156 204 73 25 141 62 214 116 33 25 166 210 205 284 28 55 79 248
79 300 0 21 -5 61 -11 89 -10 45 -9 54 7 71 9 10 22 19 28 19 18 0 119 109
154 165 17 28 56 102 87 166 70 144 83 220 68 394 -9 94 -15 120 -39 160 -36
62 -38 123 -5 188 32 62 48 76 111 92 83 22 100 38 100 92 0 26 -5 73 -12 104
-9 45 -9 72 1 125 8 47 9 70 2 77 -20 20 -11 47 35 106 39 50 55 62 107 81 78
28 77 27 132 115 44 71 45 75 31 102 -21 41 -45 58 -101 72 -88 22 -103 32
-176 113 -94 104 -105 143 -85 303 8 63 12 146 9 195 -6 102 5 151 52 217 95
134 121 228 112 404 l-5 96 73 76 c53 56 90 85 141 109 91 44 94 52 89 278 -3
96 -5 183 -5 192 0 9 -11 29 -24 45 -14 16 -28 41 -31 56 -9 32 19 118 49 155
37 45 40 62 8 62 -62 0 -102 20 -143 73 -72 90 -76 104 -53 194 10 43 29 91
41 108 13 16 39 54 59 84 33 48 130 149 177 184 12 8 26 44 37 92 31 128 32
124 -60 167 -44 20 -81 33 -84 30z"/>
</g>
</svg>
