<svg width="104" viewBox="0 0 104 52" xmlns="http://www.w3.org/2000/svg" class="savelife"><g id="savelife" fill="#000"><path d="M0 0v31.2h20.8V52h62.4V31.2H104V0H0z" fill="#fff"></path><path d="M33.2 20.2V11h5v9.2h-1.6v-7.8h-1.8v7.8h-1.6zm9.3-1.2a.8.8.0 00.5-.1.7.7.0 00.2-.3l.1-.4V13a1.1 1.1.0 000-.4.7.7.0 00-.3-.2.8.8.0 00-.5-.1.8.8.0 00-.5.0.7.7.0 00-.2.3l-.1.4a3.8 3.8.0 000 .5v4.7l.1.4a.7.7.0 00.2.3h.5zm0-8.1c.5.0.9.0 1.2.2l.7.5.4.9v6.3a2.1 2.1.0 01-.4.8 1.8 1.8.0 01-.7.6l-1.2.2-1.2-.2a1.8 1.8.0 01-.7-.6 2.1 2.1.0 01-.4-.8v-6.3c0-.4.2-.6.4-.9a1.9 1.9.0 01.7-.5c.3-.2.7-.3 1.2-.3zm7.7 6a1.1 1.1.0 000-.3.8.8.0 00-.2-.3.7.7.0 00-.3-.2 1 1 0 00-.4.0h-.8v2.7h1.2a.6.6.0 00.3-.1.6.6.0 00.1-.3 1.6 1.6.0 000-.5v-1zm-.1-3.7v-.4a.8.8.0 00-.2-.2.6.6.0 00-.3-.2 1 1 0 00-.3.0h-.8v2.3h1.1a.7.7.0 00.3-.2.7.7.0 00.1-.3v-1zm1.6 4.7-.1 1c-.1.4-.3.6-.5.8l-.7.4a3.8 3.8.0 01-1 .1H47V11h2.3l1 .1.7.4.5.7.1.9v.5c0 .5.0.9-.2 1.2a1 1 0 01-.7.5c.3.1.6.3.7.6.2.3.3.6.3 1v1zm2 2.3V11H58v1.4h-2.6v2.4h2.2v1.4h-2.2v2.6H58v1.4h-4.1zm9.3-7c0-.2.0-.5-.2-.6l-.7-.2h-.7v3.3h.7c.3.0.5-.1.7-.3.1.0.2-.3.2-.7v-1.5zm1.5 1.5c0 .5.0.9-.2 1.1a1.7 1.7.0 01-.4.8 1.8 1.8.0 01-.8.3l-1 .2h-.7v3.1h-1.5V11H63l.8.5.4.7c.2.3.2.6.2 1v1.5zm1.8 5.5V11h1.5v3.9h1.8v-4h1.6v9.3h-1.6v-4h-1.8v4h-1.5zm10.8.0v-6l-1.8 6h-1.8V11H75v6l1.7-6h2v9.2H77zm8-2.9V19a2 2 0 01-.4.7l-.7.6a2.8 2.8.0 01-1.2.2l-1.2-.2a1.8 1.8.0 01-.7-.6 2.1 2.1.0 01-.4-.8v-6.3l.4-.9.7-.5c.3-.2.7-.3 1.2-.3s.9.1 1.2.3a1.8 1.8.0 011 1.3c.2.3.2.6.2 1v.5h-1.5V13a1 1 0 00-.2-.4.7.7.0 00-.2-.3.8.8.0 00-.5.0h-.4a.7.7.0 00-.3.3l-.1.4a4 4 0 000 .5v4.7l.1.4a.7.7.0 00.3.3h.8a.7.7.0 00.3-.3 1 1 0 00.1-.3 2.6 2.6.0 000-.4v-.6h1.6zm4.9-.8c0-.3.0-.6-.2-.7-.2-.2-.4-.2-.7-.2h-.7v3.2h.7c.4.0.6.0.7-.2l.2-.6v-1.5zm1.5 1.5c0 .4.0.8-.2 1a1.7 1.7.0 01-.4.7c-.2.2-.5.4-.8.4l-1 .1H87V11h1.5v3.2h1.7l.8.5c.2.1.3.4.5.7l.1 1V18zM15 20.5l-4-5.3a3 3 0 01-.5-2 3 3 0 013.2-2.7 3 3 0 011.9.9 3 3 0 011.9-1 3 3 0 012.3.8 3 3 0 011 2 3 3 0 01-.7 2l-4.5 6-.6-.7zm-2.8-6.2 3.4 4.5 3.4-4.5a1.5 1.5.0 10-2.5-1.8l-.9 1.3-1-1.3a1.5 1.5.0 00-1-.6 1.5 1.5.0 00-1.2.4 1.5 1.5.0 00-.2 2z"></path><path d="M6 25.3h19.3V5.9H5.9v19.4zm72.7.0h19.4V5.9H26.7v19.4h52zm20.1 1.4h-20v20.8H25.2V26.7H4.5V4.5h95v22.2h-.7zm-72 19.4h50.5V26.7H26.7v19.4z"></path><path d="M36.4 41.1v-4h-.6l-1.5 4h-1.7l1.8-4.7-1.7-4.6h1.7l1.4 4h.6v-4h1.5v4h.6l1.4-4h1.6L40 36.4l1.8 4.7H40l-1.5-4H38v4h-1.5zm10.5.0V35l-1.8 6.1h-1.8v-9.3h1.5v6l1.7-6h2v9.3h-1.6zm6.8-3.3v-.3a.8.8.0 00-.2-.3.7.7.0 00-.3-.2 1 1 0 00-.4.0H52v2.7h1.2a.6.6.0 00.3-.2.6.6.0 00.2-.3 1.6 1.6.0 000-.5v-.9zm-.1-3.7v-.4a.8.8.0 00-.2-.3.6.6.0 00-.2-.2 1 1 0 00-.4.0H52v2.4h1.1a.7.7.0 00.3-.2.7.7.0 00.2-.3v-1zm1.6 4.6-.1 1.1-.4.7-.8.5a3.8 3.8.0 01-1 0h-2.4v-9.2h2.3c.4.0.8.0 1 .2.3.0.6.2.8.4l.4.6.1 1v.5c0 .5.0.8-.2 1.1a1 1 0 01-.7.6c.3.0.6.3.8.5l.2 1.1v1zm5.5 2.4V35l-1.9 6.1h-1.7v-9.3h1.5v6l1.7-6h2v9.3h-1.6zm5-6.8v6.8h-1.4v-9.3h2l1.2 5.7 1.3-5.7h2v9.3h-1.5l.1-6.7-1.2 5.5h-1.3l-1.3-5.6z"></path></g></svg>